# xmcd
#
# Track frame offsets:
#	150
#	19460
#	42492
#	61615
#	81950
#	95643
#	120126
#	136318
#	153255
#	170518
#	189656
#	201573
#	223318
#	246445
#	264289
#	286397
#	303304
#	330436
#
# Disc length: 4746 seconds
#
# Revision: 0
# Processed by: cddbd v1.5.2PL0 Copyright (c) Steve Scherf et al.
# Submitted via: EasyCDDAExtractor 16.0.9.1
#
DISCID=07128812
DTITLE=Isabel Pantoja - A su manera
DYEAR=1900
DGENRE=
TTITLE0=Naci en Sevilla
TTITLE1=Yo soy... esa
TTITLE2=Que se busquen a otra
TTITLE3=Caballo de rejoneo
TTITLE4=Marinero de luces
TTITLE5=Asi fue
TTITLE6=Que bonita es mi niña
TTITLE7=En tu capote de seda
TTITLE8=Era mi vida el
TTITLE9=Como dos barquitos
TTITLE10=Nada
TTITLE11=Hoy quiero confesarme
TTITLE12=Se me enamora el alma
TTITLE13=Francisco Alegre
TTITLE14=¿Que voy hacer contigo?
TTITLE15=Mi pequeño del alma
TTITLE16=Virgen del Rocio
TTITLE17=Buenos dias tristeza
EXTD=
EXTT0=
EXTT1=
EXTT2=
EXTT3=
EXTT4=
EXTT5=
EXTT6=
EXTT7=
EXTT8=
EXTT9=
EXTT10=
EXTT11=
EXTT12=
EXTT13=
EXTT14=
EXTT15=
EXTT16=
EXTT17=
PLAYORDER=
